<?xml version="1.0" encoding="utf-8"?>
<!-- Generator: Adobe Illustrator 16.0.3, SVG Export Plug-In . SVG Version: 6.00 Build 0)  -->
<!DOCTYPE svg PUBLIC "-//W3C//DTD SVG 1.1//EN" "http://www.w3.org/Graphics/SVG/1.1/DTD/svg11.dtd">
<svg version="1.1" id="Layer_1" xmlns="http://www.w3.org/2000/svg" xmlns:xlink="http://www.w3.org/1999/xlink" x="0px" y="0px"
	 width="100px" height="100px" viewBox="0 0 100 100" enable-background="new 0 0 100 100" xml:space="preserve">
<path d="M38.179,96.406h39.334l-0.383-11.015l5.95-12.265l0.018-0.036V37.792c0-0.95-0.773-1.726-1.725-1.728l-5.591-0.014
	c-0.001,0-0.003,0-0.004,0c-0.947,0-1.721,0.769-1.729,1.715l-0.098,12.854h-1.241l0.102-18.773
	c0.003-0.584-0.222-1.134-0.634-1.548c-0.412-0.415-0.961-0.643-1.546-0.643h-5.721c-1.202,0-2.18,0.977-2.18,2.179v14.818h-1.353
	V27.806c0-1.48-1.205-2.684-2.685-2.684h-4.822c-0.721,0-1.396,0.281-1.903,0.792c-0.508,0.511-0.785,1.189-0.781,1.909
	l0.098,16.564h-1.581l-0.253-34.286c-0.023-3.114-2.159-5.796-5.08-6.378c-1.921-0.383-3.877,0.097-5.364,1.316
	c-1.487,1.22-2.339,3.022-2.339,4.944v45.41c0,0.602-0.401,0.948-0.777,1.071c-0.375,0.124-0.904,0.082-1.261-0.405l-7.388-10.074
	c-1.808-2.466-5.157-3.214-7.625-1.704c-1.304,0.797-2.213,2.047-2.563,3.52c-0.346,1.459-0.104,2.968,0.679,4.245l20.444,33.357
	V96.406z"/>
</svg>
